<svg width="48" height="48" viewBox="0 0 48 48" fill="none" xmlns="http://www.w3.org/2000/svg">
<path d="M26.3143 26.3143C24.4286 28.26 24.2914 30.6857 24.1286 36C29.0829 36 32.5029 35.9829 34.2686 34.2686C35.9829 32.5029 36 28.92 36 24.1286C30.6857 24.3 28.26 24.4286 26.3143 26.3143V26.3143ZM12 24.1286C12 28.92 12.0171 32.5029 13.7314 34.2686C15.4971 35.9829 18.9171 36 23.8714 36C23.7 30.6857 23.5714 28.26 21.6857 26.3143C19.74 24.4286 17.3143 24.2914 12 24.1286V24.1286ZM23.8714 12C18.9257 12 15.4971 12.0171 13.7314 13.7314C12.0171 15.4971 12 19.08 12 23.8714C17.3143 23.7 19.74 23.5714 21.6857 21.6857C23.5714 19.74 23.7086 17.3143 23.8714 12V12ZM26.3143 21.6857C24.4286 19.74 24.2914 17.3143 24.1286 12C29.0829 12 32.5029 12.0171 34.2686 13.7314C35.9829 15.4971 36 19.08 36 23.8714C30.6857 23.7 28.26 23.5714 26.3143 21.6857" fill="white"/>
</svg>
