<svg width="32" height="32" viewBox="0 0 32 32" fill="none" xmlns="http://www.w3.org/2000/svg">
<path d="M22.3771 7.10286L22.3771 7.10292L22.3905 7.10724C25.8063 8.21129 27.2692 12.0196 26.1203 15.6926C25.439 17.6267 24.3304 19.3904 22.8838 20.8311C20.7904 22.8455 18.4679 24.6799 16.0083 26.2337C13.5401 24.6475 11.25 22.8503 9.13115 20.8199C7.69179 19.376 6.58158 17.6209 5.88918 15.6856C4.72459 12.0254 6.17654 8.21112 9.64924 7.0813L9.66045 7.07765L9.67159 7.07383C10.1626 6.90551 10.7567 6.83398 11.4039 6.83398C12.7698 6.83398 13.7561 7.50952 15.0907 8.52677L15.9985 9.21868L16.9074 8.52819C18.2633 7.49808 19.2278 6.83398 20.6198 6.83398C21.2383 6.83398 21.8315 6.92083 22.3771 7.10286Z" stroke="black" stroke-width="3"/>
</svg>
