<svg width="1872" height="226" viewBox="0 0 1872 226" fill="none" xmlns="http://www.w3.org/2000/svg">
<path d="M38.1618 42.1171V222.06H0V-0.146484H60.6862L114.891 176.974L168.69 -0.146484H229.376V222.06H191.214V42.1171L134.579 221.98H94.878L38.1618 42.1171Z" fill="black"/>
<path d="M371.005 119.062V115.997C371.005 87.7678 354.719 79.2183 336.57 79.2183C318.421 79.2183 304.242 89.0583 303.351 108.98H267.296C269.726 75.2662 297.76 52.2793 337.786 52.2793C377.811 52.2793 408.6 70.3462 407.627 123.095C407.627 131.403 406.979 150.679 406.979 165.681C406.979 186.491 408.843 208.268 411.922 222.06H378.378C377.163 215.043 375.947 211.01 375.299 199.718C364.847 217.462 345.159 226.093 320.771 226.093C284.715 226.093 259.517 206.816 259.517 176.731C259.517 135.677 310.319 125.273 370.924 119.143L371.005 119.062ZM298.327 175.763C298.327 190.201 310.319 198.75 328.792 198.75C355.854 198.75 371.896 184.958 371.896 157.051V144.469C319.555 149.389 298.327 156.729 298.327 175.763Z" fill="black"/>
<path d="M498.616 81.3962C482.573 81.3962 467.827 88.4132 467.827 99.4631C467.827 110.513 475.848 116.32 490.027 119.062L513.443 123.66C546.987 130.112 572.509 140.517 572.509 172.699C572.509 206.977 539.857 226.012 502.343 226.012C461.669 226.012 434.608 203.025 430.638 171.731H466.369C469.772 188.588 482.087 198.428 503.639 198.428C522.761 198.428 536.859 190.443 536.859 176.973C536.859 163.504 524.543 157.374 508.258 154.309L483.302 149.389C455.269 143.904 433.392 131.322 433.392 101.318C433.392 71.3142 464.829 53.4893 500.803 53.4893C533.132 53.4893 562.705 69.1365 569.43 102.205H534.914C530.944 87.2034 517.089 81.3962 498.616 81.3962Z" fill="black"/>
<path d="M642.513 13.6455V57.119H675.732V83.4934H642.513V173.263C642.513 190.12 646.483 194.072 662.201 194.072H675.408V221.979H648.346C612.939 221.979 605.89 212.462 605.89 178.748V83.4934H581.259V57.119H605.89V13.6455H642.513Z" fill="black"/>
<path d="M767.126 195.685C786.247 195.685 801.318 188.023 807.718 172.699H843.774C836.076 199.073 811.445 226.012 768.665 226.012C715.433 226.012 684.969 185.523 684.969 138.339C684.969 88.7358 719.16 53.4893 766.235 53.4893C817.036 53.4893 848.716 94.5431 845.637 150.034H722.158C724.589 180.683 746.141 195.685 767.126 195.685ZM808.367 123.337C807.475 97.608 787.787 81.9607 766.154 81.9607C748.896 81.9607 725.237 92.0427 722.158 123.337H808.367Z" fill="black"/>
<path d="M944.404 93.3339C921.313 93.3339 908.106 102.529 908.106 135.598V221.98H871.484V57.1195H907.539V86.5589C916.452 68.1693 932.494 57.1195 952.507 56.7969C955.262 56.7969 959.313 57.1195 962.068 57.4421V94.2212C955.91 93.5759 950.076 93.3339 944.486 93.3339H944.404Z" fill="black"/>
<path d="M1167.95 222.06H1128.81V123.983H1022.27V222.06H983.133V-0.146484H1022.27V91.8011H1128.81V-0.146484H1167.95V222.06Z" fill="black"/>
<path d="M1280.08 226.012C1239.73 226.012 1198.49 199.315 1198.49 139.872C1198.49 80.4283 1239.73 53.4893 1280.08 53.4893C1320.43 53.4893 1361.67 80.4283 1361.67 139.872C1361.67 199.315 1320.43 226.012 1280.08 226.012ZM1323.84 139.872C1323.84 101.883 1303.17 83.1706 1280.08 83.1706C1256.99 83.1706 1236.33 101.883 1236.33 139.872C1236.33 177.86 1256.99 196.25 1280.08 196.25C1303.17 196.25 1323.84 177.86 1323.84 139.872Z" fill="black"/>
<path d="M1441.48 226.012C1402.1 226.012 1386.06 200.283 1386.06 161.004V57.1191H1422.68V152.132C1422.68 174.473 1425.76 196.25 1453.15 196.25C1480.53 196.25 1490.42 174.796 1490.42 145.034V57.1191H1527.04V222.06H1490.42V199.396C1480.86 216.576 1463.92 226.093 1441.48 226.093V226.012Z" fill="black"/>
<path d="M1621.76 81.3962C1605.71 81.3962 1590.97 88.4132 1590.97 99.4631C1590.97 110.513 1598.99 116.32 1613.17 119.062L1636.58 123.66C1670.13 130.112 1695.65 140.517 1695.65 172.699C1695.65 206.977 1663 226.012 1625.48 226.012C1584.81 226.012 1557.75 203.025 1553.78 171.731H1589.51C1592.91 188.588 1605.23 198.428 1626.78 198.428C1645.9 198.428 1660 190.443 1660 176.973C1660 163.504 1647.68 157.374 1631.4 154.309L1606.44 149.389C1578.41 143.904 1556.53 131.322 1556.53 101.318C1556.53 71.3142 1587.97 53.4893 1623.94 53.4893C1656.27 53.4893 1685.85 69.1365 1692.57 102.205H1658.14C1654.17 87.2034 1640.31 81.3962 1621.84 81.3962H1621.76Z" fill="black"/>
<path d="M1793.2 195.685C1812.32 195.685 1827.39 188.023 1833.88 172.699H1869.93C1862.23 199.073 1837.6 226.012 1794.82 226.012C1741.59 226.012 1711.13 185.523 1711.13 138.339C1711.13 88.7358 1745.32 53.4893 1792.39 53.4893C1843.19 53.4893 1874.87 94.5431 1871.79 150.034H1748.31C1750.75 180.683 1772.3 195.685 1793.28 195.685H1793.2ZM1834.44 123.337C1833.55 97.608 1813.86 81.9607 1792.23 81.9607C1774.97 81.9607 1751.31 92.0427 1748.23 123.337H1834.44Z" fill="black"/>
</svg>
