<svg width="48" height="48" viewBox="0 0 48 48" fill="none" xmlns="http://www.w3.org/2000/svg">
<path d="M28.4775 34.3871L20.1762 27.6344C22.3258 25.585 30.1505 18.12 30.5241 17.7504L30.5242 17.7503C30.7087 17.5677 30.8571 17.3672 30.9315 17.1558C31.0047 16.9478 31.0312 16.6269 30.7886 16.3812C30.5674 16.1572 30.2687 16.1513 30.0718 16.1842C29.857 16.2202 29.6338 16.3186 29.4164 16.4586L29.4163 16.4585L29.4077 16.4643L16.065 25.4539L11.0829 23.6754L11.0697 23.6699C11.0551 23.6635 11.0317 23.653 11.0024 23.6381C10.9429 23.608 10.8641 23.563 10.7856 23.504C10.6169 23.3772 10.5175 23.2393 10.5011 23.0994L10.5011 23.0988C10.4948 23.0459 10.5238 22.9394 10.7328 22.7876C10.8224 22.7225 10.9179 22.6704 10.9937 22.634C11.0307 22.6162 11.0611 22.6031 11.0811 22.5949C11.091 22.5908 11.0982 22.5879 11.1022 22.5864L11.1049 22.5854L11.1055 22.5852L11.1055 22.5851L11.1057 22.5851L11.1149 22.5817L11.1257 22.5772L32.4403 13.7061L32.4499 13.7021L32.4584 13.6982L32.4586 13.6981L32.4589 13.6979L32.4592 13.6978L32.4594 13.6977L32.4598 13.6975L32.4694 13.6933C32.4787 13.6891 32.4937 13.6827 32.5135 13.6745C32.5533 13.6582 32.6116 13.6355 32.6818 13.6118C32.8268 13.5628 33.0024 13.5165 33.1642 13.5035C33.3373 13.4896 33.4172 13.5198 33.442 13.537C33.4484 13.5414 33.4576 13.5485 33.4684 13.5726C33.4794 13.5974 33.4953 13.6478 33.4991 13.7376L29.7225 33.9369C29.7111 33.961 29.6932 33.996 29.6687 34.037C29.6146 34.1275 29.5357 34.2345 29.4321 34.3224C29.3314 34.4079 29.2128 34.4713 29.0681 34.4923C28.9334 34.5119 28.7414 34.4999 28.4775 34.3871Z" fill="white" stroke="white"/>
</svg>
