<svg width="32" height="32" viewBox="0 0 32 32" fill="none" xmlns="http://www.w3.org/2000/svg">
<path d="M16.4486 19.2615L19.3414 16.3687C20.939 14.7711 20.939 12.1808 19.3414 10.5832C17.7438 8.98554 15.1535 8.98553 13.5559 10.5832L6.32395 17.8151C4.72631 19.4127 4.72631 22.003 6.32394 23.6006C7.05758 24.3343 8.00054 24.731 8.96058 24.7909C9.54974 24.8276 10.1453 24.7375 10.7029 24.5204M16.4486 13.4759L13.5559 16.3687C11.9582 17.9663 11.9582 20.5566 13.5559 22.1542C15.1535 23.7519 17.7438 23.7519 19.3414 22.1542L26.5733 14.9223C28.171 13.3247 28.171 10.7344 26.5733 9.13678C25.8397 8.40314 24.8967 8.00639 23.9367 7.94654C23.3475 7.9098 22.7519 7.99995 22.1943 8.21697" stroke="black" stroke-width="3" stroke-linecap="square"/>
</svg>
